<svg width="50" height="50" viewBox="0 0 50 50" fill="none" xmlns="http://www.w3.org/2000/svg">
<g id="Net">
<circle id="Ellipse 14" cx="25" cy="25" r="25" fill="#B36CFB"/>
<path id=".NET" d="M7.58859 31.98C7.40193 31.7667 7.30859 31.5 7.30859 31.18C7.30859 30.86 7.40193 30.6 7.58859 30.4C7.77526 30.1867 8.04193 30.08 8.38859 30.08C8.74859 30.08 9.02193 30.1867 9.20859 30.4C9.40859 30.6 9.50859 30.86 9.50859 31.18C9.50859 31.5 9.40859 31.7667 9.20859 31.98C9.02193 32.18 8.74859 32.28 8.38859 32.28C8.04193 32.28 7.77526 32.18 7.58859 31.98ZM12.3078 32V18.4H14.1678L20.7078 29.46V18.4H22.3078V32H20.4478L13.9078 20.94V32H12.3078ZM25.6616 32V18.4H33.0616V19.84H27.2616V24.48H32.0016V25.92H27.2616V30.56H33.4616V32H25.6616ZM38.1969 32V19.84H34.3969V18.4H43.5969V19.84H39.7969V32H38.1969Z" fill="white"/>
</g>
</svg>
